<?xml version="1.0" encoding="utf-8"?>
<svg xmlns="http://www.w3.org/2000/svg" xmlns:svg="http://www.w3.org/2000/svg" version="1.1" viewBox="0 0 1400 640">
	<title>The titlepage for the Standard Ebooks edition of The Declaration of Independence of the United States of America, by Thomas Jefferson</title>
	<g aria-label="THE DECLARATION">
		<path d="m 211.70979,68.245613 h 18.33918 V 130 h 17.59064 V 68.245613 h 18.33918 V 52.807016 h -54.269 z"/>
		<path d="m 294.90423,99.029239 h 24.88889 V 130 h 17.59065 V 52.807016 H 319.79312 V 83.590642 H 294.90423 V 52.807016 H 277.31359 V 130 h 17.59064 z"/>
		<path d="M 397.74927,52.807016 H 353.58552 V 130 h 44.16375 v -15.4386 h -26.5731 V 99.029239 h 25.45029 V 83.590642 H 371.17617 V 68.245613 h 26.5731 z"/>
		<path d="M 443.44664,52.807016 V 130 h 22.36257 c 21.23977,0 38.92398,-16.09357 38.92398,-38.643276 0,-22.45614 -17.77778,-38.549708 -38.92398,-38.549708 z M 461.03728,114.2807 V 68.526315 h 2.71345 c 13.09942,0 21.98831,10.011696 21.98831,22.923977 -0.0936,12.912278 -8.98246,22.830408 -21.98831,22.830408 z"/>
		<path d="M 561.68931,52.807016 H 517.52557 V 130 h 44.16374 v -15.4386 h -26.5731 V 99.029239 h 25.4503 V 83.590642 h -25.4503 V 68.245613 h 26.5731 z"/>
		<path d="m 617.87793,114.09357 c -17.68421,0 -25.45029,-12.35088 -25.45029,-22.736846 0,-10.292397 7.76608,-22.643275 25.45029,-22.643275 8.98246,0 15.1579,4.77193 15.1579,4.77193 l 7.48538,-14.97076 c 0,0 -8.60819,-7.111112 -25.35673,-7.111112 -21.89474,0 -41.82456,17.964913 -41.82456,40.140352 0,22.081871 20.02339,39.859651 41.82456,39.859651 16.74854,0 25.35673,-7.11111 25.35673,-7.11111 l -7.48538,-14.97076 c 0,0 -6.17544,4.77193 -15.1579,4.77193 z"/>
		<path d="M 669.93348,52.807016 H 652.34283 V 130 h 44.16375 v -15.4386 h -26.5731 z"/>
		<path d="m 750.82385,52.807016 h -16.2807 L 703.38525,130 h 18.90059 l 5.7076,-15.4386 h 29.38012 L 763.08116,130 h 18.90058 z m 0.5614,46.31579 h -17.40351 l 8.60819,-22.45614 h 0.18713 z"/>
		<path d="M 789.90133,52.807016 V 130 h 17.59065 V 99.497075 L 831.07093,130 H 853.4335 L 826.8604,98.093567 c 9.45029,-2.994152 15.81287,-10.760234 15.81287,-22.362574 0,-15.157895 -10.85381,-22.923977 -25.1696,-22.923977 z m 17.59065,34.245615 V 66.842104 h 2.05848 c 6.64327,0 14.59649,0.467836 14.59649,10.105263 0,9.637428 -7.95322,10.105264 -14.59649,10.105264 z"/>
		<path d="m 901.17474,52.807016 h -16.2807 L 853.73614,130 h 18.90059 l 5.7076,-15.4386 h 29.38012 L 913.43205,130 h 18.90058 z m 0.5614,46.31579 h -17.40351 l 8.60819,-22.45614 h 0.18714 z"/>
		<path d="m 930.818,68.245613 h 18.33918 V 130 h 17.59065 V 68.245613 h 18.33918 V 52.807016 H 930.818 Z"/>
		<path d="M 1014.0124,52.807016 H 996.42178 V 130 h 17.59062 z"/>
		<path d="m 1026.8341,91.356724 c 0,22.549706 16.0935,40.046786 38.9239,40.046786 22.1755,0 38.8304,-17.49708 38.8304,-40.046786 0,-22.549708 -17.4035,-39.953217 -38.8304,-39.953217 -21.2397,0 -38.9239,17.403509 -38.9239,39.953217 z m 18.9941,0 c 0,-11.508772 6.3626,-23.017544 19.9298,-23.017544 13.6609,0 19.8363,11.508772 19.8363,23.017544 0,11.508776 -5.8012,23.017546 -19.8363,23.017546 -14.4093,0 -19.9298,-11.50877 -19.9298,-23.017546 z"/>
		<path d="m 1134.9408,82.093566 h 0.1872 L 1165.818,130 h 17.5907 V 52.807016 h -17.5907 v 47.906434 h -0.1871 l -30.6901,-47.906434 h -17.5906 V 130 h 17.5906 z"/>
	</g>
	<g aria-label="OF INDEPENDENCE">
		<path d="m 213.84429,191.35672 c 0,22.54971 16.09357,40.04679 38.92398,40.04679 22.17544,0 38.83041,-17.49708 38.83041,-40.04679 0,-22.5497 -17.40351,-39.95321 -38.83041,-39.95321 -21.23977,0 -38.92398,17.40351 -38.92398,39.95321 z m 18.99415,0 c 0,-11.50877 6.36258,-23.01754 19.92983,-23.01754 13.66082,0 19.83626,11.50877 19.83626,23.01754 0,11.50878 -5.80117,23.01755 -19.83626,23.01755 -14.40936,0 -19.92983,-11.50877 -19.92983,-23.01755 z"/>
		<path d="M 348.99195,152.80702 H 304.36037 V 230 h 17.59064 v -30.97076 h 24.98246 v -15.4386 h -24.98246 v -15.34503 h 27.04094 z"/>
		<path d="M 410.53289,152.80702 H 392.94225 V 230 h 17.59064 z"/>
		<path d="m 444.40716,182.09357 h 0.18714 L 475.28435,230 H 492.875 v -77.19298 h -17.59065 v 47.90643 h -0.18713 L 444.40716,152.80702 H 426.81652 V 230 h 17.59064 z"/>
		<path d="M 509.11914,152.80702 V 230 h 22.36258 c 21.23976,0 38.92398,-16.09357 38.92398,-38.64328 0,-22.45614 -17.77778,-38.5497 -38.92398,-38.5497 z m 17.59065,61.47368 v -45.75439 h 2.71345 c 13.09941,0 21.9883,10.0117 21.9883,22.92398 -0.0936,12.91228 -8.98245,22.83041 -21.9883,22.83041 z"/>
		<path d="M 627.36184,152.80702 H 583.19809 V 230 h 44.16375 v -15.4386 h -26.5731 v -15.53216 h 25.45029 v -15.4386 h -25.45029 v -15.34503 h 26.5731 z"/>
		<path d="M 642.47443,152.80702 V 230 h 17.59064 v -28.63158 h 10.5731 c 15.06433,0 26.38597,-8.88889 26.38597,-24.79532 0,-16 -11.32164,-23.76608 -26.38597,-23.76608 z m 17.59064,34.52631 V 166.8421 h 4.95907 c 6.92398,0 13.47368,2.33919 13.47368,10.2924 0,7.85965 -6.5497,10.19883 -13.47368,10.19883 z"/>
		<path d="M 753.9554,152.80702 H 709.79166 V 230 h 44.16374 v -15.4386 h -26.5731 v -15.53216 h 25.4503 v -15.4386 h -25.4503 v -15.34503 h 26.5731 z"/>
		<path d="m 786.65864,182.09357 h 0.18714 L 817.53583,230 h 17.59065 v -77.19298 h -17.59065 v 47.90643 H 817.3487 L 786.65864,152.80702 H 769.068 V 230 h 17.59064 z"/>
		<path d="M 851.37061,152.80702 V 230 h 22.36257 c 21.23977,0 38.92398,-16.09357 38.92398,-38.64328 0,-22.45614 -17.77778,-38.5497 -38.92398,-38.5497 z m 17.59064,61.47368 v -45.75439 h 2.71345 c 13.09942,0 21.98831,10.0117 21.98831,22.92398 -0.0936,12.91228 -8.98246,22.83041 -21.98831,22.83041 z"/>
		<path d="M 969.61333,152.80702 H 925.44959 V 230 h 44.16374 v -15.4386 h -26.5731 v -15.53216 h 25.4503 v -15.4386 h -25.4503 v -15.34503 h 26.5731 z"/>
		<path d="m 1002.3165,182.09357 h 0.1872 L 1033.1937,230 h 17.5907 v -77.19298 h -17.5907 v 47.90643 h -0.1871 l -30.6901,-47.90643 H 984.7259 V 230 h 17.5906 z"/>
		<path d="m 1105.1806,214.09357 c -17.6842,0 -25.4503,-12.35088 -25.4503,-22.73685 0,-10.29239 7.7661,-22.64327 25.4503,-22.64327 8.9824,0 15.1579,4.77193 15.1579,4.77193 l 7.4854,-14.97076 c 0,0 -8.6082,-7.11111 -25.3568,-7.11111 -21.8947,0 -41.8245,17.96491 -41.8245,40.14035 0,22.08187 20.0234,39.85965 41.8245,39.85965 16.7486,0 25.3568,-7.11111 25.3568,-7.11111 l -7.4854,-14.97076 c 0,0 -6.1755,4.77193 -15.1579,4.77193 z"/>
		<path d="m 1183.8093,152.80702 h -44.1638 V 230 h 44.1638 v -15.4386 h -26.5731 v -15.53216 h 25.4502 v -15.4386 h -25.4502 v -15.34503 h 26.5731 z"/>
	</g>
	<g aria-label="OF THE UNITED">
		<path d="m 315.51827,291.35672 c 0,22.54971 16.09357,40.04679 38.92398,40.04679 22.17543,0 38.83041,-17.49708 38.83041,-40.04679 0,-22.5497 -17.40351,-39.95321 -38.83041,-39.95321 -21.23977,0 -38.92398,17.40351 -38.92398,39.95321 z m 18.99415,0 c 0,-11.50877 6.36257,-23.01754 19.92983,-23.01754 13.66081,0 19.83625,11.50877 19.83625,23.01754 0,11.50878 -5.80117,23.01755 -19.83625,23.01755 -14.40936,0 -19.92983,-11.50877 -19.92983,-23.01755 z"/>
		<path d="M 450.66593,252.80702 H 406.03435 V 330 h 17.59064 v -30.97076 h 24.98246 v -15.4386 h -24.98246 v -15.34503 h 27.04094 z"/>
		<path d="M 485.18202,268.24561 H 503.5212 V 330 h 17.59065 v -61.75439 h 18.33918 v -15.43859 h -54.26901 z"/>
		<path d="m 568.37646,299.02924 h 24.88889 V 330 h 17.59064 v -77.19298 h -17.59064 v 30.78362 H 568.37646 V 252.80702 H 550.78581 V 330 h 17.59065 z"/>
		<path d="M 671.22148,252.80702 H 627.05774 V 330 h 44.16374 v -15.4386 h -26.5731 v -15.53216 h 25.4503 v -15.4386 h -25.4503 v -15.34503 h 26.5731 z"/>
		<path d="m 776.24049,252.80702 h -17.59064 v 44.63158 c 0,12.91228 -3.92982,16.65497 -12.53801,16.65497 -8.60819,0 -12.53801,-3.74269 -12.53801,-16.65497 v -44.63158 h -17.59065 v 49.77777 c 0,19.08772 10.47954,28.81872 30.12866,28.81872 19.64912,0 30.12865,-9.731 30.12865,-28.81872 z"/>
		<path d="m 809.1367,282.09357 h 0.18713 L 840.01389,330 h 17.59064 v -77.19298 h -17.59064 v 47.90643 h -0.18713 L 809.1367,252.80702 H 791.54605 V 330 h 17.59065 z"/>
		<path d="M 891.43931,252.80702 H 873.84867 V 330 h 17.59064 z"/>
		<path d="m 898.28877,268.24561 h 18.33918 V 330 h 17.59065 v -61.75439 h 18.33918 v -15.43859 h -54.26901 z"/>
		<path d="M 1008.0563,252.80702 H 963.89255 V 330 h 44.16375 v -15.4386 h -26.57311 v -15.53216 h 25.45031 v -15.4386 h -25.45031 v -15.34503 h 26.57311 z"/>
		<path d="M 1023.1689,252.80702 V 330 h 22.3625 c 21.2398,0 38.924,-16.09357 38.924,-38.64328 0,-22.45614 -17.7778,-38.5497 -38.924,-38.5497 z m 17.5906,61.47368 v -45.75439 h 2.7134 c 13.0995,0 21.9884,10.0117 21.9884,22.92398 -0.094,12.91228 -8.9825,22.83041 -21.9884,22.83041 z"/>
	</g>
	<g aria-label="STATES OF AMERICA">
		<path d="m 198.99268,351.40351 c -12.44444,0 -25.16959,9.16959 -25.16959,23.57895 0,8.04678 5.4269,15.25146 14.69006,19.83625 9.16959,4.5848 17.40351,7.11111 17.40351,12.72515 0,7.20468 -7.29825,7.57895 -11.1345,7.57895 -8.60819,0 -18.90059,-8.70176 -18.90059,-8.70176 l -8.79532,14.78363 c 0,0 10.94737,10.19883 29.00585,10.19883 15.06432,0 29.09941,-6.45614 29.09941,-24.88889 0,-10.10526 -9.45029,-17.40351 -18.05848,-21.05263 -8.79532,-3.74269 -16.09356,-6.83041 -16.09356,-11.13451 0,-4.21052 3.18128,-6.92397 9.16959,-6.92397 7.95321,0 15.62573,5.33333 15.62573,5.33333 l 7.11111,-14.03509 c 0,0 -9.91813,-7.29824 -23.95322,-7.29824 z"/>
		<path d="M 228.97952,368.24561 H 247.3187 V 430 h 17.59065 v -61.75439 h 18.33918 v -15.43859 h -54.26901 z"/>
		<path d="M 329.21929,352.80702 H 312.93858 L 281.78069,430 h 18.90058 l 5.70761,-15.4386 h 29.38011 L 341.4766,430 h 18.90058 z m 0.5614,46.31579 h -17.40351 l 8.60819,-22.45614 h 0.18713 z"/>
		<path d="m 358.86256,368.24561 h 18.33919 V 430 h 17.59064 v -61.75439 h 18.33918 v -15.43859 h -54.26901 z"/>
		<path d="M 468.63012,352.80702 H 424.46637 V 430 h 44.16375 v -15.4386 h -26.5731 v -15.53216 h 25.45029 v -15.4386 h -25.45029 v -15.34503 h 26.5731 z"/>
		<path d="m 512.18714,351.40351 c -12.44444,0 -25.16959,9.16959 -25.16959,23.57895 0,8.04678 5.4269,15.25146 14.69006,19.83625 9.16959,4.5848 17.40351,7.11111 17.40351,12.72515 0,7.20468 -7.29825,7.57895 -11.13451,7.57895 -8.60818,0 -18.90058,-8.70176 -18.90058,-8.70176 l -8.79532,14.78363 c 0,0 10.94737,10.19883 29.00585,10.19883 15.06432,0 29.09941,-6.45614 29.09941,-24.88889 0,-10.10526 -9.45029,-17.40351 -18.05848,-21.05263 -8.79532,-3.74269 -16.09357,-6.83041 -16.09357,-11.13451 0,-4.21052 3.18129,-6.92397 9.16959,-6.92397 7.95322,0 15.62574,5.33333 15.62574,5.33333 l 7.11111,-14.03509 c 0,0 -9.91813,-7.29824 -23.95322,-7.29824 z"/>
		<path d="m 578.73099,391.35672 c 0,22.54971 16.09357,40.04679 38.92398,40.04679 22.17544,0 38.83041,-17.49708 38.83041,-40.04679 0,-22.5497 -17.40351,-39.95321 -38.83041,-39.95321 -21.23977,0 -38.92398,17.40351 -38.92398,39.95321 z m 18.99416,0 c 0,-11.50877 6.36257,-23.01754 19.92982,-23.01754 13.66082,0 19.83626,11.50877 19.83626,23.01754 0,11.50878 -5.80117,23.01755 -19.83626,23.01755 -14.40936,0 -19.92982,-11.50877 -19.92982,-23.01755 z"/>
		<path d="M 713.87864,352.80702 H 669.24706 V 430 h 17.59064 v -30.97076 h 24.98246 v -15.4386 H 686.8377 v -15.34503 h 27.04094 z"/>
		<path d="M 797.03362,352.80702 H 780.75291 L 749.59502,430 h 18.90058 l 5.70761,-15.4386 h 29.38011 L 809.29093,430 h 18.90058 z m 0.5614,46.31579 h -17.40351 l 8.60819,-22.45614 h 0.18713 z"/>
		<path d="m 899.92397,430 h 17.59064 l -6.92397,-77.19298 h -18.71345 l -17.12281,44.53801 -17.12281,-44.53801 H 838.91812 L 831.99414,430 h 17.59065 l 3.64912,-45.75439 h 0.46784 l 15.81286,45.28655 h 10.47953 l 15.81287,-45.28655 h 0.46784 z"/>
		<path d="M 973.72516,352.80702 H 929.56142 V 430 h 44.16374 v -15.4386 h -26.5731 v -15.53216 h 25.4503 v -15.4386 h -25.4503 v -15.34503 h 26.5731 z"/>
		<path d="M 988.83773,352.80702 V 430 h 17.59067 V 399.49708 L 1030.0073,430 h 22.3626 l -26.5731,-31.90643 c 9.4503,-2.99416 15.8129,-10.76024 15.8129,-22.36258 0,-15.15789 -10.8538,-22.92397 -25.1696,-22.92397 z m 17.59067,34.24561 V 366.8421 h 2.0584 c 6.6433,0 14.5965,0.46784 14.5965,10.10527 0,9.63742 -7.9532,10.10526 -14.5965,10.10526 z"/>
		<path d="m 1078.4971,352.80702 h -17.5906 V 430 h 17.5906 z"/>
		<path d="m 1132.9327,414.09357 c -17.6842,0 -25.4503,-12.35088 -25.4503,-22.73685 0,-10.29239 7.7661,-22.64327 25.4503,-22.64327 8.9825,0 15.1579,4.77193 15.1579,4.77193 l 7.4854,-14.97076 c 0,0 -8.6082,-7.11111 -25.3567,-7.11111 -21.8948,0 -41.8246,17.96491 -41.8246,40.14035 0,22.08187 20.0234,39.85965 41.8246,39.85965 16.7485,0 25.3567,-7.11111 25.3567,-7.11111 l -7.4854,-14.97076 c 0,0 -6.1754,4.77193 -15.1579,4.77193 z"/>
		<path d="m 1206.6023,352.80702 h -16.2807 L 1159.1637,430 h 18.9006 l 5.7076,-15.4386 h 29.3802 L 1218.8597,430 h 18.9005 z m 0.5614,46.31579 h -17.4035 l 8.6082,-22.45614 h 0.1872 z"/>
	</g>
	<g aria-label="THOMAS JEFFERSON">
		<path d="m 286.14255,543.68421 h 13.75438 V 590 h 13.19299 v -46.31579 h 13.75438 v -11.57895 h -40.70175 z"/>
		<path d="m 349.78838,566.77193 h 18.66667 V 590 h 13.19298 v -57.89474 h -13.19298 v 23.08772 H 349.78838 V 532.10526 H 336.5954 V 590 h 13.19298 z"/>
		<path d="m 392.45285,561.01754 c 0,16.91228 12.07018,30.03509 29.19299,30.03509 16.63158,0 29.1228,-13.12281 29.1228,-30.03509 0,-16.91228 -13.05263,-29.96491 -29.1228,-29.96491 -15.92983,0 -29.19299,13.05263 -29.19299,29.96491 z m 14.24562,0 c 0,-8.63157 4.77193,-17.26315 14.94737,-17.26315 10.24561,0 14.87719,8.63158 14.87719,17.26315 0,8.63158 -4.35088,17.26316 -14.87719,17.26316 -10.80702,0 -14.94737,-8.63158 -14.94737,-17.26316 z"/>
		<path d="m 509.44957,590 h 13.19298 l -5.19298,-57.89474 h -14.03509 l -12.84211,33.40351 -12.8421,-33.40351 H 463.69518 L 458.5022,590 h 13.19298 l 2.73684,-34.31579 h 0.35088 l 11.85965,33.96491 h 7.85965 l 11.85965,-33.96491 h 0.35088 z"/>
		<path d="M 562.33113,532.10526 H 550.12061 L 526.75219,590 h 14.17544 l 4.2807,-11.57895 h 22.03509 L 571.52412,590 h 14.17544 z m 0.42106,34.73685 H 549.69956 L 556.1557,550 h 0.14035 z"/>
		<path d="m 612.85196,531.05263 c -9.33333,0 -18.87719,6.8772 -18.87719,17.68421 0,6.03509 4.07018,11.4386 11.01754,14.8772 6.8772,3.43859 13.05263,5.33333 13.05263,9.54385 0,5.40351 -5.47368,5.68422 -8.35087,5.68422 -6.45614,0 -14.17544,-6.52632 -14.17544,-6.52632 l -6.59649,11.08772 c 0,0 8.21052,7.64912 21.75438,7.64912 11.29825,0 21.82457,-4.8421 21.82457,-18.66666 0,-7.57895 -7.08772,-13.05264 -13.54386,-15.78948 -6.5965,-2.80702 -12.07018,-5.12281 -12.07018,-8.35088 0,-3.15789 2.38597,-5.19298 6.87719,-5.19298 5.96492,0 11.7193,4 11.7193,4 l 5.33333,-10.52631 c 0,0 -7.43859,-5.47369 -17.96491,-5.47369 z"/>
		<path d="m 693.04935,532.10526 h -13.19298 v 38.17544 c 0,5.82456 -2.8772,8.14035 -6.66667,8.14035 -3.36842,0 -7.50877,-3.92982 -7.50877,-3.92982 l -4.21053,11.01754 c 0,0 5.26316,5.54386 13.54386,5.54386 11.57895,0 18.03509,-6.03509 18.03509,-17.40351 z"/>
		<path d="M 738.87389,532.10526 H 705.75108 V 590 h 33.12281 v -11.57895 h -19.92983 v -11.64912 h 19.08772 v -11.57895 h -19.08772 v -11.50877 h 19.92983 z"/>
		<path d="M 784.93201,532.10526 H 751.45833 V 590 h 13.19298 v -23.22807 h 18.73684 v -11.57895 h -18.73684 v -11.50877 h 20.2807 z"/>
		<path d="M 829.67981,532.10526 H 796.20613 V 590 h 13.19298 v -23.22807 h 18.73684 v -11.57895 h -18.73684 v -11.50877 h 20.2807 z"/>
		<path d="M 874.07677,532.10526 H 840.95396 V 590 h 33.12281 v -11.57895 h -19.92982 v -11.64912 h 19.08771 v -11.57895 h -19.08771 v -11.50877 h 19.92982 z"/>
		<path d="M 886.66118,532.10526 V 590 h 13.19298 V 567.12281 L 917.53837,590 h 16.77193 l -19.92982,-23.92982 c 7.08771,-2.24562 11.85964,-8.07018 11.85964,-16.77193 0,-11.36842 -8.14035,-17.19299 -18.87719,-17.19299 z m 13.19298,25.68421 v -15.15789 h 1.54386 c 4.98246,0 10.94737,0.35088 10.94737,7.57895 0,7.22807 -5.96491,7.57894 -10.94737,7.57894 z"/>
		<path d="m 963.29602,531.05263 c -9.33333,0 -18.87719,6.8772 -18.87719,17.68421 0,6.03509 4.07018,11.4386 11.01754,14.8772 6.8772,3.43859 13.05264,5.33333 13.05264,9.54385 0,5.40351 -5.47369,5.68422 -8.35088,5.68422 -6.45614,0 -14.17544,-6.52632 -14.17544,-6.52632 l -6.59649,11.08772 c 0,0 8.21053,7.64912 21.75439,7.64912 11.29824,0 21.82456,-4.8421 21.82456,-18.66666 0,-7.57895 -7.08772,-13.05264 -13.54386,-15.78948 -6.59649,-2.80702 -12.07018,-5.12281 -12.07018,-8.35088 0,-3.15789 2.38597,-5.19298 6.87719,-5.19298 5.96492,0 11.7193,4 11.7193,4 l 5.33334,-10.52631 c 0,0 -7.4386,-5.47369 -17.96492,-5.47369 z"/>
		<path d="m 991.51537,561.01754 c 0,16.91228 12.07013,30.03509 29.19303,30.03509 16.6315,0 29.1228,-13.12281 29.1228,-30.03509 0,-16.91228 -13.0527,-29.96491 -29.1228,-29.96491 -15.9299,0 -29.19303,13.05263 -29.19303,29.96491 z m 14.24563,0 c 0,-8.63157 4.7719,-17.26315 14.9474,-17.26315 10.2456,0 14.8771,8.63158 14.8771,17.26315 0,8.63158 -4.3508,17.26316 -14.8771,17.26316 -10.8071,0 -14.9474,-8.63158 -14.9474,-17.26316 z"/>
		<path d="m 1073.8454,554.07018 h 0.1403 L 1097.0033,590 h 13.1929 v -57.89474 h -13.1929 v 35.92983 h -0.1404 l -23.0175,-35.92983 h -13.193 V 590 h 13.193 z"/>
	</g>
</svg>
